<mxfile host="app.diagrams.net" modified="2021-06-30T14:49:10.623Z" agent="5.0 (Macintosh; Intel Mac OS X 10_15_7) AppleWebKit/537.36 (KHTML, like Gecko) Chrome/91.0.4472.114 Safari/537.36" etag="JeLskUwekbh2R2eMwWzo" version="14.8.2" type="github">
  <diagram id="P7BfTdcNpnVVDU7NFlVP" name="Page-1">
    <mxGraphModel dx="1906" dy="1046" grid="1" gridSize="10" guides="1" tooltips="1" connect="1" arrows="1" fold="1" page="1" pageScale="1" pageWidth="850" pageHeight="1100" math="0" shadow="0">
      <root>
        <mxCell id="0" />
        <mxCell id="1" parent="0" />
        <mxCell id="iVnk7hq0U0qIZl6_PHUW-1" value="" style="swimlane;startSize=0;dashed=1;strokeWidth=4;fillColor=#dae8fc;strokeColor=#6c8ebf;" vertex="1" parent="1">
          <mxGeometry x="160" y="40" width="570" height="430" as="geometry" />
        </mxCell>
        <mxCell id="iVnk7hq0U0qIZl6_PHUW-2" value="" style="aspect=fixed;html=1;points=[];align=center;image;fontSize=12;image=img/lib/mscae/Kubernetes.svg;strokeColor=#000000;fillColor=#FFFFFF;" vertex="1" parent="iVnk7hq0U0qIZl6_PHUW-1">
          <mxGeometry x="30" y="350" width="50" height="48" as="geometry" />
        </mxCell>
        <mxCell id="iVnk7hq0U0qIZl6_PHUW-7" value="&lt;font style=&quot;font-size: 14px&quot;&gt;&lt;b&gt;API GATEWAY&lt;/b&gt;&lt;/font&gt;" style="rounded=1;whiteSpace=wrap;html=1;direction=south;" vertex="1" parent="iVnk7hq0U0qIZl6_PHUW-1">
          <mxGeometry x="60" y="100" width="80" height="190" as="geometry" />
        </mxCell>
        <mxCell id="iVnk7hq0U0qIZl6_PHUW-8" value="AUDIOENGINE.API" style="rounded=1;whiteSpace=wrap;html=1;strokeWidth=4;" vertex="1" parent="iVnk7hq0U0qIZl6_PHUW-1">
          <mxGeometry x="240" y="160" width="120" height="60" as="geometry" />
        </mxCell>
        <mxCell id="iVnk7hq0U0qIZl6_PHUW-9" value="" style="aspect=fixed;html=1;points=[];align=center;image;fontSize=12;image=img/lib/mscae/Azure_Database_for_MySQL_servers.svg;strokeWidth=4;" vertex="1" parent="iVnk7hq0U0qIZl6_PHUW-1">
          <mxGeometry x="440" y="165" width="38" height="50" as="geometry" />
        </mxCell>
        <mxCell id="iVnk7hq0U0qIZl6_PHUW-11" value="" style="endArrow=classic;html=1;exitX=1;exitY=0.5;exitDx=0;exitDy=0;" edge="1" parent="iVnk7hq0U0qIZl6_PHUW-1" source="iVnk7hq0U0qIZl6_PHUW-8" target="iVnk7hq0U0qIZl6_PHUW-9">
          <mxGeometry width="50" height="50" relative="1" as="geometry">
            <mxPoint x="360" y="200" as="sourcePoint" />
            <mxPoint x="410" y="150" as="targetPoint" />
          </mxGeometry>
        </mxCell>
        <mxCell id="iVnk7hq0U0qIZl6_PHUW-12" value="Other Parts..." style="rounded=1;whiteSpace=wrap;html=1;strokeWidth=4;" vertex="1" parent="iVnk7hq0U0qIZl6_PHUW-1">
          <mxGeometry x="240" y="240" width="120" height="60" as="geometry" />
        </mxCell>
        <mxCell id="iVnk7hq0U0qIZl6_PHUW-14" value="" style="endArrow=classic;html=1;entryX=0;entryY=0.5;entryDx=0;entryDy=0;" edge="1" parent="iVnk7hq0U0qIZl6_PHUW-1">
          <mxGeometry width="50" height="50" relative="1" as="geometry">
            <mxPoint x="140" y="269.5" as="sourcePoint" />
            <mxPoint x="240" y="269.5" as="targetPoint" />
          </mxGeometry>
        </mxCell>
        <mxCell id="iVnk7hq0U0qIZl6_PHUW-15" value="" style="aspect=fixed;html=1;points=[];align=center;image;fontSize=12;image=img/lib/mscae/Azure_Database_for_MySQL_servers.svg;strokeWidth=4;" vertex="1" parent="iVnk7hq0U0qIZl6_PHUW-1">
          <mxGeometry x="440" y="240" width="38" height="50" as="geometry" />
        </mxCell>
        <mxCell id="iVnk7hq0U0qIZl6_PHUW-16" value="" style="endArrow=classic;html=1;exitX=1;exitY=0.5;exitDx=0;exitDy=0;" edge="1" parent="iVnk7hq0U0qIZl6_PHUW-1">
          <mxGeometry width="50" height="50" relative="1" as="geometry">
            <mxPoint x="360" y="269.5" as="sourcePoint" />
            <mxPoint x="440" y="269.5" as="targetPoint" />
          </mxGeometry>
        </mxCell>
        <mxCell id="iVnk7hq0U0qIZl6_PHUW-6" value="" style="swimlane;startSize=0;dashed=1;" vertex="1" parent="1">
          <mxGeometry x="190" y="90" width="180" height="280" as="geometry" />
        </mxCell>
        <mxCell id="iVnk7hq0U0qIZl6_PHUW-10" value="" style="endArrow=classic;html=1;entryX=0;entryY=0.5;entryDx=0;entryDy=0;" edge="1" parent="1" target="iVnk7hq0U0qIZl6_PHUW-8">
          <mxGeometry width="50" height="50" relative="1" as="geometry">
            <mxPoint x="300" y="230" as="sourcePoint" />
            <mxPoint x="340" y="180" as="targetPoint" />
          </mxGeometry>
        </mxCell>
        <mxCell id="iVnk7hq0U0qIZl6_PHUW-17" value="" style="rounded=1;whiteSpace=wrap;html=1;strokeColor=#000000;fillColor=#000000;" vertex="1" parent="1">
          <mxGeometry x="40" y="210" width="50" height="110" as="geometry" />
        </mxCell>
        <mxCell id="iVnk7hq0U0qIZl6_PHUW-18" value="" style="ellipse;whiteSpace=wrap;html=1;strokeColor=#000000;fillColor=#FFFFFF;" vertex="1" parent="1">
          <mxGeometry x="60" y="300" width="10" height="10" as="geometry" />
        </mxCell>
      </root>
    </mxGraphModel>
  </diagram>
</mxfile>
